<svg xmlns="http://www.w3.org/2000/svg" viewBox="0 0 256 256">
<style>
  path {
    fill: black;
  }
  @media (prefers-color-scheme: dark) {
    path {
      fill: white;
    }
  }
</style>
<path d="M128+0C57.3075+0-5.08626e-06+57.3075+0+128C0+198.692+57.3075+256+128+256C198.692+256+256+198.692+256+128C256+57.3076+198.692-5.08626e-06+128+0ZM85.25+47.1875L85.25+164.281L85.4688+164.281L128.125+107.406L170.75+164.281L170.969+164.281L170.969+47.2812C199.805+62.6619+219.438+93.0365+219.438+128C219.438+178.495+178.495+219.438+128+219.438C77.5054+219.438+36.5625+178.495+36.5625+128C36.5625+92.952+56.2997+62.5325+85.25+47.1875Z" fill="currentColor"/>
</svg>
