<svg style="fill-rule:evenodd;" xmlns="http://www.w3.org/2000/svg" version="1.1" viewBox="0 0 306 306">
<path d="M0.950639+4.53286e-06L305.049+4.53286e-06C305.574+4.53286e-06+306+0.372598+306+0.832216L306+305.168C306+305.627+305.574+306+305.049+306L0.950639+306C0.425619+306+4.97292e-06+305.627+4.97292e-06+305.168L4.97292e-06+0.832216C4.97292e-06+0.372598+0.425619+4.53286e-06+0.950639+4.53286e-06Z" opacity="1" fill="#bcbcbc"/>
<path d="M153+42.5C91.9725+42.5+42.5+91.9725+42.5+153C42.5+214.027+91.9725+263.5+153+263.5C214.027+263.5+263.5+214.027+263.5+153C263.5+91.9725+214.027+42.5+153+42.5ZM153+33.5C218.998+33.5+272.5+87.002+272.5+153C272.5+218.998+218.998+272.5+153+272.5C87.002+272.5+33.5+218.998+33.5+153C33.5+87.002+87.002+33.5+153+33.5Z" opacity="1" fill="#434343"/>
<path d="M153.125+51.5C138.037+51.5+123.777+54.8764+110.906+60.7812L110.906+186.719C110.906+187.263+111.098+187.458+111.25+187.687L153.125+135.937L195+187.687C195.152+187.458+195.344+187.263+195.344+186.719L195.344+60.7812C182.473+54.8764+168.213+51.5+153.125+51.5Z" opacity="1" fill="#e10000"/>
</svg>
