<svg style="fill-rule:evenodd;" xmlns="http://www.w3.org/2000/svg" version="1.1" viewBox="0 0 239 239">
<path d="M119.5+9C58.4725+8.99998+9+58.4725+9+119.5C9+180.527+58.4725+230+119.5+230C180.527+230+230+180.527+230+119.5C230+58.4725+180.527+9+119.5+9ZM119.5+6.6103e-06C185.498+6.6103e-06+239+53.502+239+119.5C239+185.498+185.498+239+119.5+239C53.502+239+0+185.498+0+119.5C0+53.502+53.502+3.70007e-05+119.5+6.6103e-06Z" opacity="1" fill="#434343"/>
<path d="M119.625+18C104.537+18+90.277+21.3764+77.4062+27.2813L77.4062+153.219C77.4063+153.763+77.5984+153.958+77.75+154.188L119.625+102.438L161.5+154.188C161.652+153.958+161.844+153.763+161.844+153.219L161.844+27.2813C148.973+21.3764+134.713+18+119.625+18Z" opacity="1" fill="#e10000"/>
</svg>
